<?xml version="1.0" encoding="UTF-8" standalone="no"?>
<!-- Created with Inkscape (http://www.inkscape.org/) -->

<svg
   xmlns:dc="http://purl.org/dc/elements/1.1/"
   xmlns:cc="http://creativecommons.org/ns#"
   xmlns:rdf="http://www.w3.org/1999/02/22-rdf-syntax-ns#"
   xmlns:svg="http://www.w3.org/2000/svg"
   xmlns="http://www.w3.org/2000/svg"
   xmlns:sodipodi="http://sodipodi.sourceforge.net/DTD/sodipodi-0.dtd"
   xmlns:inkscape="http://www.inkscape.org/namespaces/inkscape"
   width="32"
   height="32"
   viewBox="0 0 32 32.000001"
   id="svg2"
   version="1.1"
   inkscape:version="0.91 r"
   sodipodi:docname="favicon_sketch_2.svg"
   inkscape:export-filename="/home/paul/src/concert/branding/favicon_sketch_2.png"
   inkscape:export-xdpi="90"
   inkscape:export-ydpi="90">
  <title
     id="title4318">Concert DAW favicon</title>
  <defs
     id="defs4" />
  <sodipodi:namedview
     id="base"
     pagecolor="#ffffff"
     bordercolor="#666666"
     borderopacity="1.0"
     inkscape:pageopacity="0.0"
     inkscape:pageshadow="2"
     inkscape:zoom="14.481547"
     inkscape:cx="23.150483"
     inkscape:cy="17.595763"
     inkscape:document-units="px"
     inkscape:current-layer="layer1"
     showgrid="false"
     units="px"
     showborder="false"
     inkscape:window-width="1920"
     inkscape:window-height="1028"
     inkscape:window-x="0"
     inkscape:window-y="0"
     inkscape:window-maximized="1" />
  <metadata
     id="metadata7">
    <rdf:RDF>
      <cc:Work
         rdf:about="">
        <dc:format>image/svg+xml</dc:format>
        <dc:type
           rdf:resource="http://purl.org/dc/dcmitype/StillImage" />
        <dc:title>Concert DAW favicon</dc:title>
        <dc:creator>
          <cc:Agent>
            <dc:title>Paul Weaver</dc:title>
          </cc:Agent>
        </dc:creator>
        <dc:publisher>
          <cc:Agent>
            <dc:title>Concert Audio Technologies</dc:title>
          </cc:Agent>
        </dc:publisher>
      </cc:Work>
    </rdf:RDF>
  </metadata>
  <g
     inkscape:label="Layer 1"
     inkscape:groupmode="layer"
     id="layer1"
     transform="translate(0,-1020.3622)">
    <path
       style="fill:#1f141f;fill-opacity:1;stroke:none;stroke-width:22.7582016;stroke-miterlimit:4;stroke-dasharray:none;stroke-opacity:1"
       d="M 0 0 L 0 32 L 32 32 L 32 0 L 0 0 z M 16 2.8339844 A 4.5 4.5 0 0 1 20.5 7.3339844 A 4.5 4.5 0 0 1 17.5 11.570312 L 17.5 14.5 L 28 14.5 L 28 17.5 L 24.5 17.5 L 24.5 20.074219 A 4.5 4.5 0 0 1 27.5 24.310547 A 4.5 4.5 0 0 1 23 28.810547 A 4.5 4.5 0 0 1 18.5 24.310547 A 4.5 4.5 0 0 1 21.5 20.074219 L 21.5 17.5 L 10.5 17.5 L 10.5 20.074219 A 4.5 4.5 0 0 1 13.5 24.310547 A 4.5 4.5 0 0 1 9 28.810547 A 4.5 4.5 0 0 1 4.5 24.310547 A 4.5 4.5 0 0 1 7.5 20.074219 L 7.5 17.5 L 4 17.5 L 4 14.5 L 14.5 14.5 L 14.5 11.570312 A 4.5 4.5 0 0 1 11.5 7.3339844 A 4.5 4.5 0 0 1 16 2.8339844 z M 16 5.8339844 A 1.5 1.5 0 0 0 14.5 7.3339844 A 1.5 1.5 0 0 0 16 8.8339844 A 1.5 1.5 0 0 0 17.5 7.3339844 A 1.5 1.5 0 0 0 16 5.8339844 z M 9 22.810547 A 1.5 1.5 0 0 0 7.5 24.310547 A 1.5 1.5 0 0 0 9 25.810547 A 1.5 1.5 0 0 0 10.5 24.310547 A 1.5 1.5 0 0 0 9 22.810547 z M 23 22.810547 A 1.5 1.5 0 0 0 21.5 24.310547 A 1.5 1.5 0 0 0 23 25.810547 A 1.5 1.5 0 0 0 24.5 24.310547 A 1.5 1.5 0 0 0 23 22.810547 z "
       transform="translate(0,1020.3622)"
       id="rect4136" />
    <rect
       style="fill:#9c27b0;fill-opacity:1;stroke:none;stroke-width:5.91300011;stroke-miterlimit:4;stroke-dasharray:none;stroke-opacity:1"
       id="rect5594"
       width="4"
       height="4"
       x="32"
       y="1048.3622" />
    <rect
       style="fill:#f3f7f3;fill-opacity:1;stroke:none;stroke-width:5.91300011;stroke-miterlimit:4;stroke-dasharray:none;stroke-opacity:1"
       id="rect5594-2"
       width="4"
       height="4"
       x="32"
       y="1020.3622" />
    <rect
       style="fill:#8694aa;fill-opacity:1;stroke:none;stroke-width:5.91300011;stroke-miterlimit:4;stroke-dasharray:none;stroke-opacity:1"
       id="rect5594-7"
       width="4"
       height="4"
       x="32"
       y="1024.3622" />
    <rect
       style="fill:#e82e1d;fill-opacity:1;stroke:none;stroke-width:5.91300011;stroke-miterlimit:4;stroke-dasharray:none;stroke-opacity:1"
       id="rect5594-0"
       width="4"
       height="4"
       x="32"
       y="1028.3622" />
    <rect
       style="fill:#bc3d52;fill-opacity:1;stroke:none;stroke-width:5.91300011;stroke-miterlimit:4;stroke-dasharray:none;stroke-opacity:1"
       id="rect5594-9"
       width="4"
       height="4"
       x="32"
       y="1032.3622" />
    <rect
       style="fill:#1f141f;fill-opacity:1;stroke:none;stroke-width:5.91300011;stroke-miterlimit:4;stroke-dasharray:none;stroke-opacity:1"
       id="rect5594-3"
       width="4"
       height="4"
       x="32"
       y="1036.3622" />
    <rect
       style="fill:#7b8a45;fill-opacity:1;stroke:none;stroke-width:5.91300011;stroke-miterlimit:4;stroke-dasharray:none;stroke-opacity:1"
       id="rect5594-6"
       width="4"
       height="4"
       x="32"
       y="1040.3622" />
    <rect
       style="fill:#f87a0d;fill-opacity:1;stroke:none;stroke-width:5.91300011;stroke-miterlimit:4;stroke-dasharray:none;stroke-opacity:1"
       id="rect5594-06"
       width="4"
       height="4"
       x="32"
       y="1044.3622" />
  </g>
</svg>
